<?xml version="1.0" encoding="iso-8859-1"?>
<!-- Generator: Adobe Illustrator 18.0.0, SVG Export Plug-In . SVG Version: 6.00 Build 0)  -->
<!DOCTYPE svg PUBLIC "-//W3C//DTD SVG 1.1//EN" "http://www.w3.org/Graphics/SVG/1.1/DTD/svg11.dtd">
<svg xmlns="http://www.w3.org/2000/svg" xmlns:xlink="http://www.w3.org/1999/xlink" version="1.1" id="Capa_1" x="0px" y="0px" viewBox="0 0 220 220" style="enable-background:new 0 0 220 220;" xml:space="preserve" width="512px" height="512px">
<g>
	<path d="M110,0C49.346,0,0,49.346,0,110s49.346,110,110,110s110-49.346,110-110S170.654,0,110,0z M110,210   c-55.14,0-100-44.86-100-100S54.86,10,110,10s100,44.86,100,100S165.14,210,110,210z" fill="#006DF0"/>
	<path d="M110,19.5c-49.902,0-90.5,40.598-90.5,90.5s40.598,90.5,90.5,90.5s90.5-40.598,90.5-90.5S159.902,19.5,110,19.5z    M110,197.5c-48.248,0-87.5-39.252-87.5-87.5S61.752,22.5,110,22.5s87.5,39.252,87.5,87.5S158.248,197.5,110,197.5z" fill="#006DF0"/>
	<polygon points="68.578,87.088 78.771,87.088 76.202,74.07 80.81,74.07 80.81,62.07 61.863,62.07 61.863,74.07 66.009,74.07  " fill="#006DF0"/>
	<polygon points="91.609,114.245 87.263,130.115 84.131,114.245 73.938,114.245 81.566,152.898 91.294,153.25 101.978,114.245  " fill="#006DF0"/>
	<polygon points="134.532,114.245 131.4,130.115 127.054,114.245 116.685,114.245 127.369,153.25 137.097,152.898 144.725,114.245     " fill="#006DF0"/>
	<polygon points="119.615,87.088 114.154,67.149 104.509,67.149 99.048,87.088  " fill="#006DF0"/>
	<polygon points="139.892,87.088 150.085,87.088 152.654,74.07 158.137,74.07 158.137,62.07 139.19,62.07 139.19,74.07    142.461,74.07  " fill="#006DF0"/>
	<polygon points="60.155,89.088 60.155,98.67 70.864,98.67 70.864,98.67 81.057,98.67 81.057,98.67 95.876,98.67 95.876,98.67    106.244,98.67 106.244,98.67 112.419,98.67 112.419,98.67 122.788,98.67 122.788,98.67 137.606,98.67 137.606,98.67 147.799,98.67    147.799,98.67 159.845,98.67 159.845,89.088  " fill="#006DF0"/>
	<rect x="60.155" y="102.663" width="99.69" height="9.582" fill="#006DF0"/>
</g>
<g>
</g>
<g>
</g>
<g>
</g>
<g>
</g>
<g>
</g>
<g>
</g>
<g>
</g>
<g>
</g>
<g>
</g>
<g>
</g>
<g>
</g>
<g>
</g>
<g>
</g>
<g>
</g>
<g>
</g>
</svg>
